<svg width="24" height="20" viewBox="0 0 24 20" fill="none" xmlns="http://www.w3.org/2000/svg">
<path d="M23.9279 5.87712C23.8694 4.81266 23.6666 4.08572 23.3699 3.44973C23.0687 2.78246 22.5963 2.17806 21.9858 1.67848C21.3865 1.16975 20.6611 0.775915 19.8604 0.524754C19.097 0.277712 18.2249 0.108796 16.9475 0.0604253C15.6678 0.0115968 15.2589 0 12 0C8.74109 0 8.33221 0.0115968 7.05249 0.0601201C5.77515 0.108796 4.90302 0.277865 4.13965 0.525059C3.33893 0.776068 2.61365 1.16975 2.01416 1.67848C1.40369 2.1779 0.931091 2.78231 0.6297 3.44958C0.333252 4.08572 0.130554 4.81266 0.0725098 5.87697C0.013916 6.94356 0 7.28414 0 9.99992C0 12.7159 0.013916 13.0566 0.0725098 14.123C0.130737 15.1873 0.333618 15.9143 0.630249 16.5504C0.931458 17.2175 1.40387 17.8221 2.01434 18.3215C2.61365 18.8303 3.33911 19.2239 4.13983 19.4749C4.90302 19.7223 5.77533 19.8912 7.05267 19.9399C8.33258 19.9886 8.74127 20 12.0002 20C15.2591 20 15.668 19.9886 16.9477 19.9399C18.225 19.8912 19.0972 19.7223 19.8605 19.4749C21.4724 18.9555 22.7466 17.8937 23.3699 16.5504C23.6667 15.9143 23.8694 15.1873 23.9279 14.123C23.9861 13.0564 24 12.7159 24 10.0001C24 7.28414 23.9861 6.94356 23.9279 5.87712ZM21.7678 14.0411C21.7145 15.0161 21.5189 15.5456 21.3547 15.8979C20.9509 16.7701 20.1238 17.4594 19.0772 17.7959C18.6544 17.9327 18.019 18.0957 16.849 18.1401C15.5839 18.1883 15.2043 18.1984 12 18.1984C8.79547 18.1984 8.41608 18.1883 7.15082 18.1401C5.98096 18.0957 5.34558 17.9327 4.92261 17.7959C4.40149 17.6355 3.92999 17.3799 3.54291 17.0477C3.14429 16.7251 2.83759 16.3324 2.64514 15.8979C2.4809 15.5456 2.28534 15.0161 2.23206 14.0411C2.17438 12.9867 2.16211 12.6704 2.16211 10.0002C2.16211 7.32992 2.17438 7.01376 2.23206 5.95921C2.28552 4.98417 2.4809 4.45468 2.64514 4.10236C2.83759 3.66794 3.14447 3.27502 3.54291 2.95245C3.92999 2.62026 4.40149 2.36467 4.92279 2.20445C5.34558 2.06743 5.98096 1.90462 7.151 1.86006C8.41626 1.812 8.79584 1.80177 12 1.80177H11.9998C15.204 1.80177 15.5836 1.812 16.849 1.86021C18.019 1.90462 18.6542 2.06758 19.0772 2.20445C19.5983 2.36483 20.0698 2.62041 20.4569 2.95245C20.8555 3.27502 21.1622 3.66794 21.3545 4.10236C21.5189 4.45468 21.7145 4.98417 21.7678 5.95921C21.8254 7.0136 21.8377 7.32992 21.8377 10.0001C21.8377 12.6704 21.8256 12.9865 21.7678 14.0411Z" fill="url(#paint0_linear)"/>
<path d="M11.9999 5C8.68626 5 6 7.2387 6 10.0001C6 12.7615 8.68626 15 11.9999 15C15.3137 15 18 12.7615 18 10.0001C18 7.2387 15.3137 5 11.9999 5ZM11.9999 13.2457C9.84905 13.2455 8.10522 11.7925 8.1054 9.99993C8.1054 8.20754 9.84905 6.75435 12.0001 6.75435C14.1511 6.7545 15.8948 8.20754 15.8948 9.99993C15.8948 11.7925 14.151 13.2457 11.9999 13.2457Z" fill="url(#paint1_linear)"/>
<path d="M20 4.5001C20 5.32844 19.3284 6 18.5001 6C17.6716 6 17 5.32844 17 4.5001C17 3.67156 17.6716 3 18.5001 3C19.3284 3 20 3.67156 20 4.5001Z" fill="url(#paint2_linear)"/>
<defs>
<linearGradient id="paint0_linear" x1="2.01404" y1="18.3216" x2="18.3846" y2="-1.32293" gradientUnits="userSpaceOnUse">
<stop stop-color="#FFD600"/>
<stop offset="0.5" stop-color="#FF0100"/>
<stop offset="1" stop-color="#D800B9"/>
</linearGradient>
<linearGradient id="paint1_linear" x1="7.75738" y1="13.5355" x2="14.7125" y2="5.18937" gradientUnits="userSpaceOnUse">
<stop stop-color="#FF6400"/>
<stop offset="0.5" stop-color="#FF0100"/>
<stop offset="1" stop-color="#FD0056"/>
</linearGradient>
<linearGradient id="paint2_linear" x1="17.4394" y1="5.56062" x2="19.5606" y2="3.4394" gradientUnits="userSpaceOnUse">
<stop stop-color="#F30072"/>
<stop offset="1" stop-color="#E50097"/>
</linearGradient>
</defs>
</svg>
