<svg width="20" height="15" viewBox="0 0 20 15" fill="none" xmlns="http://www.w3.org/2000/svg">
<path d="M6.28982 14.9999C13.8374 14.9999 17.9648 9.22947 17.9648 4.22581C17.9648 4.0619 17.9611 3.8987 17.9532 3.73634C18.7543 3.20181 19.4507 2.53478 20 1.77552C19.2648 2.07714 18.4735 2.28005 17.6436 2.37172C18.4908 1.90281 19.1412 1.16129 19.4479 0.277261C18.6551 0.710967 17.7771 1.02611 16.8423 1.19635C16.0936 0.460319 15.0275 0 13.847 0C11.5811 0 9.7435 1.69581 9.7435 3.78619C9.7435 4.08345 9.77951 4.3724 9.84985 4.64966C6.43951 4.49124 3.41537 2.98454 1.39175 0.693224C1.03943 1.25282 0.836182 1.90295 0.836182 2.5966C0.836182 3.91025 1.56067 5.07013 2.6622 5.74856C1.98898 5.72941 1.35666 5.55889 0.803833 5.27501C0.803223 5.29092 0.803223 5.30641 0.803223 5.32331C0.803223 7.15726 2.21756 8.68846 4.09531 9.03543C3.75046 9.12203 3.3876 9.16864 3.01331 9.16864C2.74933 9.16864 2.49207 9.1447 2.24197 9.10034C2.76443 10.6049 4.27933 11.6998 6.07529 11.7305C4.67087 12.7463 2.90161 13.3514 0.978851 13.3514C0.648041 13.3514 0.321198 13.3339 0 13.299C1.81595 14.3731 3.97247 15 6.28998 15" fill="#1DA1F2"/>
</svg>
